# xmcd
# 
# Track frame offsets:
#     150
#     21186
#     42243
#     63281
# 
# Disc length: 1121
# 
# Revision: 0
# Processed by: cddbd v1.5.2PL0 Copyright (c) Steve Scherf et al.
# Submitted via: fre:ac v1.0.17
# 
DISCID=2b045f04
DTITLE=名護啓介 CV.加藤慶祐 - Fight for Jistice ～Individual-System NAGO ver.～
DYEAR=2008
DGENRE=Anime
TTITLE0=Fight for Justice
TTITLE1=Fight for Justice 名護啓介セリフ ver. Story fist
TTITLE2=Fight for Justice 名護啓介セリフ ver. Justice fist
TTITLE3=Fight for Justice instrumental
EXTD=
EXTT0=
EXTT1=
EXTT2=
EXTT3=
PLAYORDER=
